<svg width="100" height="116" viewBox="0 0 100 116" fill="none" xmlns="http://www.w3.org/2000/svg">
<g opacity="0.16">
<circle cx="2" cy="2" r="2" fill="#9A0020"/>
<circle cx="2" cy="34" r="2" fill="#9A0020"/>
<circle cx="2" cy="66" r="2" fill="#9A0020"/>
<circle cx="2" cy="98" r="2" fill="#9A0020"/>
<circle cx="2" cy="18" r="2" fill="#9A0020"/>
<circle cx="2" cy="50" r="2" fill="#9A0020"/>
<circle cx="2" cy="82" r="2" fill="#9A0020"/>
<circle cx="2" cy="114" r="2" fill="#9A0020"/>
<circle cx="18" cy="2" r="2" fill="#9A0020"/>
<circle cx="18" cy="34" r="2" fill="#9A0020"/>
<circle cx="18" cy="66" r="2" fill="#9A0020"/>
<circle cx="18" cy="98" r="2" fill="#9A0020"/>
<circle cx="18" cy="18" r="2" fill="#9A0020"/>
<circle cx="18" cy="50" r="2" fill="#9A0020"/>
<circle cx="18" cy="82" r="2" fill="#9A0020"/>
<circle cx="34" cy="2" r="2" fill="#9A0020"/>
<circle cx="34" cy="34" r="2" fill="#9A0020"/>
<circle cx="34" cy="66" r="2" fill="#9A0020"/>
<circle cx="34" cy="98" r="2" fill="#9A0020"/>
<circle cx="34" cy="18" r="2" fill="#9A0020"/>
<circle cx="34" cy="50" r="2" fill="#9A0020"/>
<circle cx="34" cy="82" r="2" fill="#9A0020"/>
<circle cx="34" cy="114" r="2" fill="#9A0020"/>
<circle cx="50" cy="2" r="2" fill="#9A0020"/>
<circle cx="50" cy="34" r="2" fill="#9A0020"/>
<circle cx="50" cy="66" r="2" fill="#9A0020"/>
<circle cx="50" cy="98" r="2" fill="#9A0020"/>
<circle cx="50" cy="18" r="2" fill="#9A0020"/>
<circle cx="50" cy="50" r="2" fill="#9A0020"/>
<circle cx="50" cy="82" r="2" fill="#9A0020"/>
<circle cx="50" cy="114" r="2" fill="#9A0020"/>
<circle cx="66" cy="2" r="2" fill="#9A0020"/>
<circle cx="66" cy="34" r="2" fill="#9A0020"/>
<circle cx="66" cy="66" r="2" fill="#9A0020"/>
<circle cx="66" cy="98" r="2" fill="#9A0020"/>
<circle cx="66" cy="18" r="2" fill="#9A0020"/>
<circle cx="66" cy="50" r="2" fill="#9A0020"/>
<circle cx="66" cy="82" r="2" fill="#9A0020"/>
<circle cx="66" cy="114" r="2" fill="#9A0020"/>
<circle cx="82" cy="2" r="2" fill="#9A0020"/>
<circle cx="82" cy="34" r="2" fill="#9A0020"/>
<circle cx="82" cy="66" r="2" fill="#9A0020"/>
<circle cx="82" cy="98" r="2" fill="#9A0020"/>
<circle cx="82" cy="18" r="2" fill="#9A0020"/>
<circle cx="82" cy="50" r="2" fill="#9A0020"/>
<circle cx="82" cy="82" r="2" fill="#9A0020"/>
<circle cx="82" cy="114" r="2" fill="#9A0020"/>
<circle cx="98" cy="2" r="2" fill="#9A0020"/>
<circle cx="98" cy="34" r="2" fill="#9A0020"/>
<circle cx="98" cy="66" r="2" fill="#9A0020"/>
<circle cx="98" cy="98" r="2" fill="#9A0020"/>
<circle cx="98" cy="18" r="2" fill="#9A0020"/>
<circle cx="98" cy="50" r="2" fill="#9A0020"/>
<circle cx="98" cy="82" r="2" fill="#9A0020"/>
<circle cx="98" cy="114" r="2" fill="#9A0020"/>
<circle cx="18" cy="114" r="2" fill="#9A0020"/>
</g>
</svg>
